<svg width="34" height="34" viewBox="0 0 34 34" fill="none" xmlns="http://www.w3.org/2000/svg">
<path fill-rule="evenodd" clip-rule="evenodd" d="M29.3959 9.91663C29.3959 10.1984 29.284 10.4687 29.0847 10.6679C28.8855 10.8672 28.6152 10.9791 28.3334 10.9791H5.66675C5.38496 10.9791 5.1147 10.8672 4.91545 10.6679C4.71619 10.4687 4.60425 10.1984 4.60425 9.91663C4.60425 9.63483 4.71619 9.36458 4.91545 9.16532C5.1147 8.96607 5.38496 8.85413 5.66675 8.85413H28.3334C28.6152 8.85413 28.8855 8.96607 29.0847 9.16532C29.284 9.36458 29.3959 9.63483 29.3959 9.91663ZM29.3959 17C29.3959 17.2818 29.284 17.552 29.0847 17.7513C28.8855 17.9505 28.6152 18.0625 28.3334 18.0625H5.66675C5.38496 18.0625 5.1147 17.9505 4.91545 17.7513C4.71619 17.552 4.60425 17.2818 4.60425 17C4.60425 16.7182 4.71619 16.4479 4.91545 16.2487C5.1147 16.0494 5.38496 15.9375 5.66675 15.9375H28.3334C28.6152 15.9375 28.8855 16.0494 29.0847 16.2487C29.284 16.4479 29.3959 16.7182 29.3959 17ZM29.3959 24.0833C29.3959 24.3651 29.284 24.6353 29.0847 24.8346C28.8855 25.0339 28.6152 25.1458 28.3334 25.1458H5.66675C5.38496 25.1458 5.1147 25.0339 4.91545 24.8346C4.71619 24.6353 4.60425 24.3651 4.60425 24.0833C4.60425 23.8015 4.71619 23.5312 4.91545 23.332C5.1147 23.1327 5.38496 23.0208 5.66675 23.0208H28.3334C28.6152 23.0208 28.8855 23.1327 29.0847 23.332C29.284 23.5312 29.3959 23.8015 29.3959 24.0833Z" fill="black"/>
</svg>
